<mxfile host="app.diagrams.net" modified="2024-06-04T13:03:47.541Z" agent="Mozilla/5.0 (Windows NT 10.0; Win64; x64; rv:99.0) Gecko/20100101 Firefox/99.0" etag="pzhDFvRE12PQKVBiibHe" version="24.4.13" type="device">
  <diagram name="Page-1" id="TlcmL-dNoBzjLyBj_eRI">
    <mxGraphModel dx="1554" dy="734" grid="1" gridSize="10" guides="1" tooltips="1" connect="1" arrows="1" fold="1" page="1" pageScale="1" pageWidth="1920" pageHeight="1200" math="0" shadow="0">
      <root>
        <mxCell id="0" />
        <mxCell id="1" parent="0" />
        <mxCell id="u3vP9QHpZRoPDNACxWeD-1" value="DDL for tables" style="rounded=0;whiteSpace=wrap;html=1;" vertex="1" parent="1">
          <mxGeometry x="60" y="330" width="100" height="50" as="geometry" />
        </mxCell>
        <mxCell id="u3vP9QHpZRoPDNACxWeD-2" value="Table locations as dictionary" style="rounded=0;whiteSpace=wrap;html=1;" vertex="1" parent="1">
          <mxGeometry x="60" y="390" width="100" height="50" as="geometry" />
        </mxCell>
        <mxCell id="u3vP9QHpZRoPDNACxWeD-17" style="edgeStyle=orthogonalEdgeStyle;rounded=0;orthogonalLoop=1;jettySize=auto;html=1;" edge="1" parent="1" source="u3vP9QHpZRoPDNACxWeD-3" target="u3vP9QHpZRoPDNACxWeD-10">
          <mxGeometry relative="1" as="geometry" />
        </mxCell>
        <mxCell id="u3vP9QHpZRoPDNACxWeD-3" value="rdb_to_neptune.py" style="verticalLabelPosition=bottom;html=1;verticalAlign=top;align=center;strokeColor=none;fillColor=#00BEF2;shape=mxgraph.azure.script_file;pointerEvents=1;" vertex="1" parent="1">
          <mxGeometry x="891.25" y="360" width="47.5" height="50" as="geometry" />
        </mxCell>
        <mxCell id="u3vP9QHpZRoPDNACxWeD-5" value="&lt;ol&gt;&lt;li&gt;Uses &lt;b&gt;create-gremlin-vertices-headers-template.txt&lt;/b&gt; to create JSON mapping SQL attribute name with gremlin vertices bulk loader headers by querying LLM&lt;br&gt;&lt;/li&gt;&lt;li&gt;Uses &lt;b&gt;create-gremlin-edges-headers-template.txt&lt;/b&gt; to create JSON describing relationships between tables based on foreign/primary keys as well as a label for these relationships by querying LLM&lt;br&gt;&lt;/li&gt;&lt;li&gt;Creates one vertices CSV for each table and one edge CSV for each relationship between tables&lt;br&gt;&lt;/li&gt;&lt;/ol&gt;" style="text;strokeColor=none;fillColor=none;html=1;whiteSpace=wrap;verticalAlign=middle;overflow=hidden;" vertex="1" parent="1">
          <mxGeometry x="203.75" y="428" width="340" height="150" as="geometry" />
        </mxCell>
        <mxCell id="u3vP9QHpZRoPDNACxWeD-6" value="&lt;div&gt;S3 bucket containing Gremlin Bulk &lt;br&gt;&lt;/div&gt;&lt;div&gt;load CSV for structured data&lt;/div&gt;" style="sketch=0;points=[[0,0,0],[0.25,0,0],[0.5,0,0],[0.75,0,0],[1,0,0],[0,1,0],[0.25,1,0],[0.5,1,0],[0.75,1,0],[1,1,0],[0,0.25,0],[0,0.5,0],[0,0.75,0],[1,0.25,0],[1,0.5,0],[1,0.75,0]];outlineConnect=0;fontColor=#232F3E;fillColor=#7AA116;strokeColor=#ffffff;dashed=0;verticalLabelPosition=bottom;verticalAlign=top;align=center;html=1;fontSize=12;fontStyle=0;aspect=fixed;shape=mxgraph.aws4.resourceIcon;resIcon=mxgraph.aws4.s3;" vertex="1" parent="1">
          <mxGeometry x="620" y="346" width="78" height="78" as="geometry" />
        </mxCell>
        <mxCell id="u3vP9QHpZRoPDNACxWeD-15" style="edgeStyle=orthogonalEdgeStyle;rounded=0;orthogonalLoop=1;jettySize=auto;html=1;" edge="1" parent="1" source="u3vP9QHpZRoPDNACxWeD-8" target="u3vP9QHpZRoPDNACxWeD-6">
          <mxGeometry relative="1" as="geometry" />
        </mxCell>
        <mxCell id="u3vP9QHpZRoPDNACxWeD-8" value="rdbms-to-gremlin.py" style="verticalLabelPosition=bottom;html=1;verticalAlign=top;align=center;strokeColor=none;fillColor=#00BEF2;shape=mxgraph.azure.script_file;pointerEvents=1;" vertex="1" parent="1">
          <mxGeometry x="350" y="360" width="47.5" height="50" as="geometry" />
        </mxCell>
        <mxCell id="u3vP9QHpZRoPDNACxWeD-9" value="Passes entire bucket as parameter to Neptune database /loader endpoint, so all data within bucket loaded to Neptune" style="text;html=1;align=center;verticalAlign=middle;whiteSpace=wrap;rounded=0;" vertex="1" parent="1">
          <mxGeometry x="820" y="455" width="190" height="30" as="geometry" />
        </mxCell>
        <mxCell id="u3vP9QHpZRoPDNACxWeD-10" value="Amazon Neptune" style="sketch=0;outlineConnect=0;fontColor=#232F3E;gradientColor=none;strokeColor=#ffffff;fillColor=#232F3E;dashed=0;verticalLabelPosition=middle;verticalAlign=bottom;align=center;html=1;whiteSpace=wrap;fontSize=10;fontStyle=1;spacing=3;shape=mxgraph.aws4.productIcon;prIcon=mxgraph.aws4.neptune;" vertex="1" parent="1">
          <mxGeometry x="1120" y="330" width="80" height="110" as="geometry" />
        </mxCell>
        <mxCell id="u3vP9QHpZRoPDNACxWeD-11" value="All data from structured tables/RDBMS loaded to Neptune" style="text;html=1;align=center;verticalAlign=middle;whiteSpace=wrap;rounded=0;" vertex="1" parent="1">
          <mxGeometry x="1085" y="460" width="150" height="30" as="geometry" />
        </mxCell>
        <mxCell id="u3vP9QHpZRoPDNACxWeD-13" style="edgeStyle=orthogonalEdgeStyle;rounded=0;orthogonalLoop=1;jettySize=auto;html=1;entryX=-0.042;entryY=0.26;entryDx=0;entryDy=0;entryPerimeter=0;" edge="1" parent="1" source="u3vP9QHpZRoPDNACxWeD-1" target="u3vP9QHpZRoPDNACxWeD-8">
          <mxGeometry relative="1" as="geometry" />
        </mxCell>
        <mxCell id="u3vP9QHpZRoPDNACxWeD-14" style="edgeStyle=orthogonalEdgeStyle;rounded=0;orthogonalLoop=1;jettySize=auto;html=1;entryX=-0.021;entryY=0.7;entryDx=0;entryDy=0;entryPerimeter=0;" edge="1" parent="1" source="u3vP9QHpZRoPDNACxWeD-2" target="u3vP9QHpZRoPDNACxWeD-8">
          <mxGeometry relative="1" as="geometry" />
        </mxCell>
        <mxCell id="u3vP9QHpZRoPDNACxWeD-16" style="edgeStyle=orthogonalEdgeStyle;rounded=0;orthogonalLoop=1;jettySize=auto;html=1;" edge="1" parent="1" source="u3vP9QHpZRoPDNACxWeD-6">
          <mxGeometry relative="1" as="geometry">
            <mxPoint x="890" y="385" as="targetPoint" />
          </mxGeometry>
        </mxCell>
      </root>
    </mxGraphModel>
  </diagram>
</mxfile>
